<?xml version="1.0" encoding="UTF-8" standalone="no"?>
<!-- Created with Inkscape (http://www.inkscape.org/) -->
<svg xmlns:dc="http://purl.org/dc/elements/1.1/" xmlns:cc="http://creativecommons.org/ns#" xmlns:rdf="http://www.w3.org/1999/02/22-rdf-syntax-ns#" xmlns:svg="http://www.w3.org/2000/svg" xmlns="http://www.w3.org/2000/svg" xmlns:sodipodi="http://sodipodi.sourceforge.net/DTD/sodipodi-0.dtd" xmlns:inkscape="http://www.inkscape.org/namespaces/inkscape" width="190" height="190" id="svg2" sodipodi:version="0.32" inkscape:version="0.46" sodipodi:docname="checkmarks_ocal081028_f1.svg" inkscape:output_extension="org.inkscape.output.svg.inkscape" version="1.0">
  <defs id="defs4">
    <inkscape:perspective sodipodi:type="inkscape:persp3d" inkscape:vp_x="0 : 526.18109 : 1" inkscape:vp_y="0 : 1000 : 0" inkscape:vp_z="744.09448 : 526.18109 : 1" inkscape:persp3d-origin="372.04724 : 350.78739 : 1" id="perspective10"/>
    <inkscape:perspective id="perspective3331" inkscape:persp3d-origin="372.04724 : 350.78739 : 1" inkscape:vp_z="744.09448 : 526.18109 : 1" inkscape:vp_y="0 : 1000 : 0" inkscape:vp_x="0 : 526.18109 : 1" sodipodi:type="inkscape:persp3d"/>
    <inkscape:perspective sodipodi:type="inkscape:persp3d" inkscape:vp_x="0 : 526.18109 : 1" inkscape:vp_y="0 : 1000 : 0" inkscape:vp_z="744.09448 : 526.18109 : 1" inkscape:persp3d-origin="372.04724 : 350.78739 : 1" id="perspective2502"/>
    <inkscape:perspective id="perspective2504" inkscape:persp3d-origin="372.04724 : 350.78739 : 1" inkscape:vp_z="744.09448 : 526.18109 : 1" inkscape:vp_y="0 : 1000 : 0" inkscape:vp_x="0 : 526.18109 : 1" sodipodi:type="inkscape:persp3d"/>
    <inkscape:perspective sodipodi:type="inkscape:persp3d" inkscape:vp_x="0 : 526.18109 : 1" inkscape:vp_y="0 : 1000 : 0" inkscape:vp_z="744.09448 : 526.18109 : 1" inkscape:persp3d-origin="372.04724 : 350.78739 : 1" id="perspective2448"/>
    <inkscape:perspective id="perspective2409" inkscape:persp3d-origin="372.04724 : 350.78739 : 1" inkscape:vp_z="744.09448 : 526.18109 : 1" inkscape:vp_y="0 : 1000 : 0" inkscape:vp_x="0 : 526.18109 : 1" sodipodi:type="inkscape:persp3d"/>
    <inkscape:perspective id="perspective2407" inkscape:persp3d-origin="372.04724 : 350.78739 : 1" inkscape:vp_z="744.09448 : 526.18109 : 1" inkscape:vp_y="0 : 1000 : 0" inkscape:vp_x="0 : 526.18109 : 1" sodipodi:type="inkscape:persp3d"/>
  </defs>
  <sodipodi:namedview id="base" pagecolor="#ffffff" bordercolor="#666666" borderopacity="1.0" gridtolerance="10000" guidetolerance="10" objecttolerance="10" inkscape:pageopacity="0.0" inkscape:pageshadow="2" inkscape:zoom="3.9" inkscape:cx="95" inkscape:cy="95" inkscape:document-units="px" inkscape:current-layer="layer1" showgrid="false" inkscape:window-width="1170" inkscape:window-height="963" inkscape:window-x="158" inkscape:window-y="48"/>
  <metadata id="metadata7">
    <rdf:RDF>
      <cc:Work rdf:about="">
        <dc:format>image/svg+xml</dc:format>
        <dc:type rdf:resource="http://purl.org/dc/dcmitype/StillImage"/>
      </cc:Work>
    </rdf:RDF>
  </metadata>
  <g inkscape:label="Layer 1" inkscape:groupmode="layer" id="layer1" style="display:inline" transform="translate(-73.24779,-53.178333)">
    <g style="display:inline" id="g2414" inkscape:label="Layer 1" transform="translate(-123.39162,12.727619)">
      <text id="text3228" y="137.75861" x="163.32207" style="font-size:40px;font-style:normal;font-variant:normal;font-weight:normal;font-stretch:normal;fill:#47A447;fill-opacity:1;stroke:none;stroke-width:1px;stroke-linecap:butt;stroke-linejoin:miter;stroke-opacity:1;font-family:Kochi Gothic;-inkscape-font-specification:Kochi Gothic" xml:space="preserve"><tspan y="137.75861" x="163.32207" id="tspan3230" sodipodi:role="line"/></text>
      <path sodipodi:nodetypes="csssccssssccc" id="path2418" d="M 289.6693,57.934231 C 243.90218,57.934231 206.63942,95.197021 206.63941,140.96412 C 206.63941,186.73124 243.90218,223.994 289.6693,223.99401 C 335.43641,223.99401 372.69919,186.73124 372.69918,140.96412 C 372.69918,121.17805 366.00386,103.48369 354.6342,88.988491 L 346.8164,98.254351 C 356.72825,110.45859 360.60782,124.00813 360.60782,140.96412 C 360.60782,180.185 328.89017,211.88392 289.6693,211.88392 C 250.44841,211.88391 218.73078,180.185 218.73078,140.96412 C 218.73078,101.74326 250.44843,70.025601 289.6693,70.025601 C 302.09748,70.025601 311.39307,71.812161 321.54117,77.416731 L 328.96868,67.662851 C 317.08684,61.100771 304.17183,57.934231 289.6693,57.934231 z" style="fill:#47A447;fill-opacity:1;fill-rule:evenodd;stroke:none;stroke-width:20.20000076;stroke-linecap:butt;stroke-linejoin:round;marker:none;stroke-miterlimit:4;stroke-dasharray:none;stroke-dashoffset:0;stroke-opacity:1;visibility:visible;display:inline;overflow:visible;enable-background:accumulate"/>
      <path id="path2510" d="M 258.93878,130.04411 C 262.28688,130.0442 264.81945,132.79138 266.53652,138.28573 C 269.97046,148.58782 272.41719,153.73881 273.8767,153.73876 C 274.99269,153.73881 276.15168,152.88032 277.35366,151.16325 C 301.47745,112.53076 323.79848,81.281331 344.31679,57.414831 C 349.63935,51.233801 358.09559,48.143191 369.68552,48.143021 C 372.43258,48.143191 374.27835,48.400731 375.22286,48.915661 C 376.16704,49.430931 376.63923,50.074811 376.6394,50.847311 C 376.63923,52.049371 375.22271,54.410261 372.38981,57.929951 C 339.25149,97.764551 308.51715,139.83111 280.18671,184.12972 C 278.21206,187.22036 274.17712,188.76567 268.08181,188.76564 C 261.90056,188.76567 258.25191,188.50811 257.13594,187.99297 C 254.21698,186.70526 250.78297,180.13773 246.83391,168.29037 C 242.36966,155.15534 240.13754,146.91374 240.13759,143.56551 C 240.13754,139.95988 243.14231,136.48295 249.15185,133.13472 C 252.84337,131.07438 256.10567,130.0442 258.93878,130.04411" style="font-size:12px;font-style:normal;font-variant:normal;font-weight:normal;font-stretch:normal;fill:#47A447;fill-opacity:1;stroke:none;stroke-width:1px;stroke-linecap:butt;stroke-linejoin:miter;stroke-opacity:1;font-family:Webdings;-inkscape-font-specification:Webdings"/>
    </g>
  </g>
</svg>